<svg width="63" height="63" viewBox="0 0 63 63" fill="none" xmlns="http://www.w3.org/2000/svg">
<g clip-path="url(#clip0_460_5456)">
<path d="M60.2692 51.9906C57.8782 56.1312 54.0169 59.0935 49.3984 60.3311C49.3458 60.3453 49.2933 60.3586 49.2407 60.372C47.7496 60.7581 46.2376 60.9491 44.7356 60.9491C43.2336 60.9491 41.7425 60.7581 40.2897 60.3811C38.8253 60.0009 37.3992 59.4304 36.044 58.674C35.9673 58.6306 35.8905 58.5873 35.8138 58.5431L31.3379 55.9594L40.2889 50.7913L40.419 50.8655C42.4606 51.9997 44.8207 52.2916 47.0816 51.6853C47.848 51.4802 48.5719 51.1799 49.2407 50.7938C50.5901 50.0191 51.7176 48.899 52.5166 47.5146C53.7125 45.4439 54.0302 43.0321 53.4114 40.722C52.7926 38.4127 51.3115 36.482 49.2407 35.287L40.2897 30.1189L31.3379 24.9507V14.6145L40.2897 19.7826L49.2407 24.9516L53.7158 27.5352C57.8573 29.9262 60.8196 33.7867 62.0572 38.4052C63.2948 43.0245 62.6593 47.8491 60.2692 51.9906Z" fill="#00B3E4"/>
<path d="M49.2404 19.7824V24.9513L40.2894 19.7832V19.7816C40.2894 16.4749 38.4855 13.581 35.8118 12.0315C34.4941 11.2684 32.9663 10.8314 31.3376 10.8314C26.4021 10.8314 22.3866 14.8469 22.3866 19.7824V40.454L13.4355 45.6221V19.7824C13.4355 15.0004 15.297 10.5053 18.6787 7.12355C22.0596 3.74263 26.5556 1.88037 31.3376 1.88037C36.1196 1.88037 40.6155 3.74263 43.9964 7.12355C44.0348 7.16191 44.0731 7.20027 44.1115 7.23947C46.2698 9.43698 47.7951 12.0932 48.5941 14.9871C49.0202 16.5291 49.2404 18.1386 49.2404 19.7824Z" fill="#FFB81C"/>
<path d="M49.2398 45.6229L40.288 50.791L31.3369 55.9591L26.861 58.5428C24.1031 60.1357 21.0416 60.9488 17.9392 60.9488C16.3839 60.9488 14.8185 60.7445 13.2765 60.3308C8.65794 59.0932 4.79666 56.1309 2.40567 51.9903C0.0155074 47.8488 -0.619978 43.0243 0.617634 38.4049C0.631812 38.3523 0.645989 38.2998 0.661001 38.2481C1.48413 35.28 3.02197 32.6313 5.12942 30.4913C6.25194 29.3513 7.53542 28.3564 8.95901 27.5349L13.4349 24.9504V35.2858H13.4341C10.5702 36.9404 8.96568 39.9494 8.96068 43.0401C8.95817 44.5621 9.34347 46.1041 10.1583 47.5144C11.3533 49.5851 13.284 51.0662 15.5932 51.685C17.9025 52.3038 20.3152 51.9861 22.3859 50.791L31.3369 45.6229L40.2888 40.4548L49.2398 45.6229Z" fill="#685BC7"/>
</g>
<defs>
<clipPath id="clip0_460_5456">
<rect width="62.6182" height="62.6182" fill="white"/>
</clipPath>
</defs>
</svg>
